<svg id="Group_244865" data-name="Group 244865" xmlns="http://www.w3.org/2000/svg" xmlns:xlink="http://www.w3.org/1999/xlink" width="512" height="414.394" viewBox="0 0 512 414.394">
  <defs>
    <clipPath id="clip-path">
      <rect id="Rectangle_34597" data-name="Rectangle 34597" width="512" height="414.394" fill="none"/>
    </clipPath>
    <clipPath id="clip-path-2">
      <rect id="Rectangle_34596" data-name="Rectangle 34596" width="512" height="414.393" fill="none"/>
    </clipPath>
    <clipPath id="clip-path-3">
      <rect id="Rectangle_34595" data-name="Rectangle 34595" width="8.402" height="8.425" fill="none"/>
    </clipPath>
  </defs>
  <g id="Group_244870" data-name="Group 244870" clip-path="url(#clip-path)">
    <g id="Group_244869" data-name="Group 244869" transform="translate(0 0)">
      <g id="Group_244868" data-name="Group 244868" clip-path="url(#clip-path-2)">
        <path id="Path_193902" data-name="Path 193902" d="M512,807.623v55.612H0V779.126C0,724.747,29.77,673.762,79.839,641.15q.327-.213.653-.428c46.32-30.66,55.271-82.7,103.408-111.923,42.636-25.888,112.258-25.694,154.62.423,25.393,15.656,40.089,38.1,52.7,60.208s24.266,45.028,45.539,63.507q.278.242.559.483C484.88,694.167,512,749.583,512,807.623" transform="translate(0 -448.841)" fill="#f8f8ff"/>
        <path id="Path_193903" data-name="Path 193903" d="M512.015,2909.794H.017a25.659,25.659,0,0,1,4.4-14.27,29.989,29.989,0,0,1,12.03-10.28c51.07-24.6,146.929-44.59,256.749-50.69,62.08-3.46,119.689-1.97,167.279,3.38,40.91,4.61,71.54,35.41,71.54,71.86" transform="translate(-0.015 -2495.404)" fill="#d7d7ff"/>
        <path id="Path_193904" data-name="Path 193904" d="M2022.264,3189.4c0,1.273-15.566,2.308-34.761,2.308s-34.761-1.035-34.761-2.308,15.566-2.3,34.761-2.3,34.761,1.026,34.761,2.3" transform="translate(-1720.229 -2807.614)" fill="#a9a9ff"/>
        <path id="Path_193905" data-name="Path 193905" d="M2330.628,1324.186a11.693,11.693,0,1,1-10.216-13,11.683,11.683,0,0,1,10.216,13" transform="translate(-2032.592 -1154.988)" fill="#212b40"/>
        <path id="Path_193906" data-name="Path 193906" d="M2161.907,1335.634a11.693,11.693,0,1,1-10.216-13,11.683,11.683,0,0,1,10.216,13" transform="translate(-1883.96 -1165.073)" fill="#212b40"/>
        <path id="Path_193907" data-name="Path 193907" d="M2136.032,1215.126a10.689,10.689,0,1,1-9.34-11.887,10.681,10.681,0,0,1,9.34,11.887" transform="translate(-1862.928 -1059.903)" fill="#212b40"/>
        <path id="Path_193908" data-name="Path 193908" d="M2202.961,1143.911a10.689,10.689,0,1,1-9.34-11.887,10.681,10.681,0,0,1,9.34,11.887" transform="translate(-1921.888 -997.167)" fill="#212b40"/>
        <path id="Path_193909" data-name="Path 193909" d="M2336.206,1191.478a10.689,10.689,0,1,1-9.34-11.887,10.681,10.681,0,0,1,9.34,11.887" transform="translate(-2039.267 -1039.07)" fill="#212b40"/>
        <path id="Path_193910" data-name="Path 193910" d="M2208.246,1252.84c-.854,7.135-6.524,12.323-12.651,11.59s-10.413-7.113-9.559-14.248,6.514-12.324,12.651-11.59,10.413,7.113,9.559,14.248" transform="translate(-1925.65 -1091.053)" fill="#fac795"/>
        <path id="Path_193911" data-name="Path 193911" d="M2170.677,1217.46a12.033,12.033,0,0,0,9.094-8.616s-.094,12.622,10.6,10.964l6.374-1.467-5.47-11.1-12.257-3.914-10.758,9.916Z" transform="translate(-1910.085 -1060.051)" fill="#212b40"/>
        <path id="Path_193912" data-name="Path 193912" d="M2341.177,1319.548c.135,1.967-.427,3.626-2.394,3.761a3.582,3.582,0,1,1-.49-7.147c1.967-.135,2.748,1.406,2.884,3.386" transform="translate(-2056.928 -1159.44)" fill="#fac795"/>
        <path id="Path_193913" data-name="Path 193913" d="M2215.263,1351.406a.77.77,0,1,1-.673-.857.768.768,0,0,1,.673.857" transform="translate(-1950.139 -1189.736)" fill="#553230"/>
        <path id="Path_193914" data-name="Path 193914" d="M2211.1,1331.766a.552.552,0,0,1,.451.448.567.567,0,0,1-.287.528.869.869,0,0,1-.511.048l-2.029-.224a.753.753,0,0,1-.518-.2.547.547,0,0,1-.054-.607c.118-.135.43-.121.573-.144a5.239,5.239,0,0,1,1.532-.03,5.144,5.144,0,0,1,.841.181" transform="translate(-1945.168 -1172.996)" fill="#553230"/>
        <path id="Path_193915" data-name="Path 193915" d="M2268.508,1355.542a.77.77,0,1,1-.673-.857.768.768,0,0,1,.673.857" transform="translate(-1997.045 -1193.378)" fill="#553230"/>
        <path id="Path_193916" data-name="Path 193916" d="M2264.347,1335.9a.552.552,0,0,1,.451.448.567.567,0,0,1-.287.528.87.87,0,0,1-.511.048l-2.029-.224a.754.754,0,0,1-.518-.2.548.548,0,0,1-.054-.607c.118-.135.43-.121.573-.145a5.234,5.234,0,0,1,1.532-.029,5.126,5.126,0,0,1,.841.181" transform="translate(-1992.073 -1176.639)" fill="#553230"/>
        <path id="Path_193917" data-name="Path 193917" d="M2237.144,1356.637a.259.259,0,0,1-.068-.009,1.3,1.3,0,0,0-.387-.024,1.443,1.443,0,0,1-.66-.09.684.684,0,0,1-.425-.635.719.719,0,0,1,.354-.553,2.026,2.026,0,0,1,.272-.142c.049-.022.1-.044.145-.069a1.14,1.14,0,0,0,.453-.457,1.681,1.681,0,0,0,.164-.9.25.25,0,0,1,.233-.265.242.242,0,0,1,.265.234,2.127,2.127,0,0,1-.223,1.166,1.642,1.642,0,0,1-.656.66c-.057.031-.116.057-.175.084a1.434,1.434,0,0,0-.2.1.253.253,0,0,0-.128.159c0,.052.056.121.13.155a.933.933,0,0,0,.394.047,1.881,1.881,0,0,1,.585.041.25.25,0,0,1-.068.491" transform="translate(-1969.411 -1192.334)" fill="#553230"/>
        <path id="Path_193918" data-name="Path 193918" d="M2231.51,1395.736a4.109,4.109,0,0,0,2.824.048.141.141,0,0,1,.17.2c-.312.542-.993,1.506-1.859,1.472-.916-.036-1.227-1.073-1.323-1.565a.14.14,0,0,1,.188-.158" transform="translate(-1965.637 -1229.538)" fill="#fff"/>
        <path id="Path_193919" data-name="Path 193919" d="M2357.089,1330.446a.249.249,0,0,0,.116-.088,3.55,3.55,0,0,0,.639-2.589,2.145,2.145,0,0,0-.721-1.393,1.3,1.3,0,0,0-1.629-.008.254.254,0,1,0,.344.373.79.79,0,0,1,.971.034,1.653,1.653,0,0,1,.533,1.068,3.038,3.038,0,0,1-.547,2.216.254.254,0,0,0,.293.387" transform="translate(-2074.954 -1168.186)" fill="#55312f"/>
        <path id="Path_193920" data-name="Path 193920" d="M2124.051,2139.328c1.177,4,3.126,8.637,1.7,15.812a34.407,34.407,0,0,1-1.38,4.841c-5.034,13.8-8.2,24.875-8.2,24.875l-8.271.021s-1.025-33.522-6.079-63.1c-3.8-22.206,2.243-45.325,5.491-55.474,1.066-3.37,1.837-5.308,1.837-5.308h25.17c.2.436.406.883.6,1.309.548,1.238,1.045,2.446,1.5,3.633,11.489,29.919-5.277,45.65-11.235,60.854a27.982,27.982,0,0,0-1.837,7.043c-.01.091-.02.173-.03.264a13.567,13.567,0,0,0,.741,5.227" transform="translate(-1850.484 -1815.596)" fill="#fa9926"/>
        <path id="Path_193921" data-name="Path 193921" d="M2271.546,2143.522c-.5-3.593-1.045-7.2-1.654-10.748-5.064-29.574,9.8-60.783,9.8-60.783h3.424c16.462,37.085-9.54,53.191-11.57,71.531" transform="translate(-1998.689 -1825.281)" fill="#e07a14"/>
        <path id="Path_193922" data-name="Path 193922" d="M2056.448,3101.172s-.547,6.019-2.062,7.124c-2.8,2.04-11.5,1.144-12.178,3.172-.374,1.118,5.192,2.588,6.427,2.708,6,.581,13.036.447,16.685-.831,3.082-1.08-.609-12.172-.609-12.172Z" transform="translate(-1799.026 -2731.917)" fill="#3a3ae0"/>
        <path id="Path_193923" data-name="Path 193923" d="M2313.76,2159.981c-5.034,13.8-8.2,24.875-8.2,24.875l-8.271.021a549.641,549.641,0,0,0-5.267-58.083c-.254-1.675-.528-3.349-.812-5.014-3.785-22.155,2.213-45.234,5.46-55.414,1.086-3.41,1.867-5.369,1.867-5.369h25.17c17.761,38.2-9.175,54.439-11,73.1-.619,6.343,6.09,12.077,1.056,25.88" transform="translate(-2017.327 -1815.596)" fill="#fa9926"/>
        <path id="Path_193924" data-name="Path 193924" d="M2204.353,2062.306c-.031,1.522-8.373,2.842-18.349,3.633-2.142.173-4.354.315-6.587.426-8.657.467-17.456.508-22.521-.061,1.066-3.369,1.837-5.308,1.837-5.308h45.61c.01.852.01,1.309.01,1.309" transform="translate(-1900.075 -1815.595)" fill="#e07a14"/>
        <path id="Path_193925" data-name="Path 193925" d="M2245.849,3101.172s-.547,6.019-2.062,7.124c-2.8,2.04-11.5,1.144-12.178,3.172-.375,1.118,5.192,2.588,6.427,2.708,6,.581,13.036.447,16.685-.831,3.082-1.08-.609-12.172-.609-12.172Z" transform="translate(-1965.875 -2731.917)" fill="#3a3ae0"/>
        <path id="Path_193926" data-name="Path 193926" d="M2179.085,1560.307c-.081,3.806-50.054,5-49.983,1.2-14.777-59.91,11.2-68.2,11.2-68.2,16.025-3.907,25.657,2.446,31.381,12.585,3.319,5.886,5.318,13.042,6.505,20.207a143.516,143.516,0,0,1,.893,34.2" transform="translate(-1871.586 -1314.479)" fill="#55c955"/>
        <path id="Path_193927" data-name="Path 193927" d="M2445.012,1627.164c-1.969-2.365-4.7-3.867-7.348-5.3-2.243-1.218-4.466-2.446-6.719-3.633-1.6-.853-3.593-1.126-3.5-3.451.173-4.232,5.115-7.429,8.637-7.845a9.245,9.245,0,0,1,2.426.02c3.319,5.886,5.318,13.042,6.506,20.207" transform="translate(-2138.406 -1415.538)" fill="#3bb23b"/>
        <path id="Path_193928" data-name="Path 193928" d="M2314.122,1516.092c3.911,9.531,28.274,3.245,34.051,18.24a82.485,82.485,0,0,1,5.535,28.1l10.023.571s5.28-36.071-6.656-46.736c-13.6-12.152-25.67-13.514-33.083-14.444-4.4-.552-11.552,10.171-9.869,14.273" transform="translate(-2038.358 -1322.98)" fill="#55c955"/>
        <path id="Path_193929" data-name="Path 193929" d="M1758.229,1496.641c-8.385-2.306-23.818,22.453-38.592,16.133a82.489,82.489,0,0,1-23.994-15.632l-7.4,6.784s20.066,30.33,38.132,27.831,28.621-8.088,33.04-16.15c2.131-3.888,3.089-17.789-1.187-18.965" transform="translate(-1487.225 -1318.302)" fill="#55c955"/>
        <path id="Path_193930" data-name="Path 193930" d="M2281.325,1374.081l-.4,14.3c.586,8.606-3.738,19.8-9.043,31.508-2.4-11.357-3.394-21.962-1.583-31.072V1380.5Z" transform="translate(-1999.158 -1210.47)" fill="#fac795"/>
        <path id="Path_193931" data-name="Path 193931" d="M2269.522,1553.251c-.447,7.493.561,15.76,2.4,24.474,3.957-8.732,7.364-17.175,8.6-24.474Z" transform="translate(-1999.198 -1368.306)" fill="#fff"/>
        <path id="Path_193932" data-name="Path 193932" d="M2284.289,1441.672a7.957,7.957,0,0,1-7.094,3.755v-1.969c1.126,0,4.821-.142,7.094-1.786" transform="translate(-2006.05 -1270.013)" fill="#f09e58"/>
        <path id="Path_193933" data-name="Path 193933" d="M1624.574,1416.812s1.311-6.115.976-7.609c-.236-1.051-1.7-2.474-2.751-2.255-1.634.339-2.216,6.139-2.216,6.139s-2.182-7.137-4.309-7.8c-3.062-.958-10.25,4.91-8.582,9.544,2.362,6.561,9.375,8.664,9.375,8.664Z" transform="translate(-1416.047 -1237.866)" fill="#fac896"/>
        <path id="Path_193934" data-name="Path 193934" d="M2479.181,2303.553v23.48a7.021,7.021,0,0,1-7.022,7.022h-48a7.019,7.019,0,0,1-7.02-7.022v-23.48Z" transform="translate(-2129.333 -2029.27)" fill="#9595f9"/>
        <path id="Path_193935" data-name="Path 193935" d="M2461.084,2167.261h-39.563c-13.067-.3-12.15-7.915-12.15-7.915v-10.211a10.748,10.748,0,0,1,1-5.274,2.929,2.929,0,0,1,2.575-1.529h56.706a2.932,2.932,0,0,1,2.577,1.529,10.781,10.781,0,0,1,1,5.274v10.211s.919,7.618-12.15,7.915" transform="translate(-2122.476 -1887.245)" fill="#d7d7ff"/>
        <path id="Path_193936" data-name="Path 193936" d="M2522.288,2288.277c0-1.436-8.594-1.436-8.594,0v7.728h8.594Z" transform="translate(-2214.389 -2014.864)" fill="#9595f9"/>
        <path id="Path_193937" data-name="Path 193937" d="M2520.25,2314.676v5.6c0,1.542-9.23,1.542-9.23,0v-8.116c0-1.542,9.229-1.542,9.229,0v2.516Z" transform="translate(-2212.033 -2035.833)" fill="#ebebff"/>
        <path id="Path_193938" data-name="Path 193938" d="M2525.337,2352.324c0,.762-7.64.762-7.64,0v-3.862h7.64Z" transform="translate(-2217.916 -2068.832)" fill="#d7d7ff"/>
        <path id="Path_193939" data-name="Path 193939" d="M2777.821,2288.277c0-1.436-8.593-1.436-8.593,0v7.728h8.593Z" transform="translate(-2439.497 -2014.864)" fill="#9595f9"/>
        <path id="Path_193940" data-name="Path 193940" d="M2775.784,2314.676v5.6c0,1.542-9.23,1.542-9.23,0v-8.116c0-1.542,9.23-1.542,9.23,0v2.516Z" transform="translate(-2437.141 -2035.833)" fill="#ebebff"/>
        <path id="Path_193941" data-name="Path 193941" d="M2780.871,2352.324c0,.762-7.64.762-7.64,0v-3.862h7.64Z" transform="translate(-2443.023 -2068.832)" fill="#d7d7ff"/>
        <path id="Path_193942" data-name="Path 193942" d="M2557.676,2121.362v.622a.2.2,0,0,1-.2.2h-8.527a.2.2,0,0,1-.2-.2v-.62a.2.2,0,0,1,.17-.2,1.414,1.414,0,0,0,1.244-1.4v-.566a.3.3,0,0,1,.3-.3h4.469a.3.3,0,0,1,.3.3v.551a1.415,1.415,0,0,0,1.415,1.415h.834a.2.2,0,0,1,.2.2" transform="translate(-2245.272 -1866.604)" fill="#3a3ae0"/>
        <path id="Path_193943" data-name="Path 193943" d="M2728.968,2121.362v.622a.2.2,0,0,0,.2.2h8.527a.2.2,0,0,0,.2-.2v-.62a.2.2,0,0,0-.17-.2,1.413,1.413,0,0,1-1.243-1.4v-.566a.3.3,0,0,0-.3-.3h-4.469a.3.3,0,0,0-.3.3v.551a1.415,1.415,0,0,1-1.415,1.415h-.834a.2.2,0,0,0-.2.2" transform="translate(-2404.031 -1866.604)" fill="#3a3ae0"/>
        <path id="Path_193944" data-name="Path 193944" d="M2758.637,2129.983h-.62a1.291,1.291,0,0,1-1.291-1.291v-.049h3.2v.049a1.291,1.291,0,0,1-1.291,1.291" transform="translate(-2428.484 -1875.187)" fill="#fff"/>
        <path id="Path_193945" data-name="Path 193945" d="M2571.738,2129.983h-.62a1.291,1.291,0,0,1-1.291-1.291v-.049h3.2v.049a1.291,1.291,0,0,1-1.291,1.291" transform="translate(-2263.838 -1875.187)" fill="#fff"/>
        <path id="Path_193946" data-name="Path 193946" d="M2595.282,2053.257v2.722a.318.318,0,0,1-.318.318H2592.4a.318.318,0,0,1-.318-.314l-.034-2.851s.162-3.065-9.5-3.195c-9.657.13-9.5,3.195-9.5,3.195l-.029,2.85a.318.318,0,0,1-.318.314h-2.567a.318.318,0,0,1-.318-.318v-2.722a5.548,5.548,0,0,1,.745-2.817c2.388-4.052,8.96-4.515,11.983-4.5,3.023-.011,9.594.452,11.982,4.5a5.545,5.545,0,0,1,.745,2.817" transform="translate(-2263.838 -1802.327)" fill="#9595f9"/>
        <path id="Path_193947" data-name="Path 193947" d="M2792.783,2356.821v1.762c0,.35-3.49.35-3.49,0v-1.762Z" transform="translate(-2457.173 -2076.195)" fill="#fff"/>
        <path id="Path_193948" data-name="Path 193948" d="M2536.49,2356.821h3.49v1.762c0,.35-3.49.35-3.49,0Z" transform="translate(-2234.471 -2076.195)" fill="#fff"/>
        <path id="Path_193949" data-name="Path 193949" d="M2786.546,2327.5a.417.417,0,0,1-.417.417H2781.1a.417.417,0,0,1,0-.833h5.033a.417.417,0,0,1,.417.417" transform="translate(-2449.585 -2049.997)" fill="#8383ed"/>
        <path id="Path_193950" data-name="Path 193950" d="M2531.012,2327.5a.417.417,0,0,1-.417.417h-5.033a.417.417,0,1,1,0-.833h5.033a.417.417,0,0,1,.417.417" transform="translate(-2224.478 -2049.997)" fill="#8383ed"/>
        <path id="Path_193951" data-name="Path 193951" d="M2611.139,2011.752s3.457,6.117-.466,11.877c-2.4,3.52-11.564,1.85-12.834-.1-1.214-1.866,1.128-5.436,1.128-5.436l-2.378.031s-2.392-1.736-1.764-2.609c.9-1.236,6.352-4.306,6.352-4.306Z" transform="translate(-2285.767 -1771.733)" fill="#fac896"/>
        <path id="Path_193952" data-name="Path 193952" d="M1475.854,436.121a14.818,14.818,0,0,1-14.8-14.8,1.5,1.5,0,1,1,3,0,11.8,11.8,0,1,0,23.6,0V282.284a1.5,1.5,0,0,1,3,0V421.32a14.818,14.818,0,0,1-14.8,14.8" transform="translate(-1287.086 -247.351)" fill="#b1b1ef"/>
        <path id="Path_193953" data-name="Path 193953" d="M1456.916,1279.4a17.381,17.381,0,0,1-17.361-17.361,4.06,4.06,0,0,1,8.119,0,9.242,9.242,0,1,0,18.483,0V1239.2a4.06,4.06,0,0,1,8.119,0v22.841a17.381,17.381,0,0,1-17.361,17.361" transform="translate(-1268.148 -1088.074)" fill="#b1b1ef"/>
        <path id="Path_193954" data-name="Path 193954" d="M1697.069,335.09A71.929,71.929,0,0,1,1769,407.021a20.339,20.339,0,0,0-28.772,0,1.367,1.367,0,0,1-.144-.144c-.043-39.663-19.292-71.787-43.015-71.787" transform="translate(-1494.999 -295.191)" fill="#ebebff"/>
        <path id="Path_193955" data-name="Path 193955" d="M1164.879,335.09c-23.737.014-42.972,32.139-43.015,71.8l-.129.13a20.339,20.339,0,0,0-28.772,0,71.926,71.926,0,0,1,71.916-71.931" transform="translate(-962.824 -295.191)" fill="#ebebff"/>
        <path id="Path_193956" data-name="Path 193956" d="M1697.069,335.09c23.723,0,42.971,32.124,43.015,71.787a20.336,20.336,0,0,0-28.628.144l-.086-.086c-.014-39.691-6.4-71.844-14.3-71.844" transform="translate(-1494.999 -295.191)" fill="#a9a9ff"/>
        <path id="Path_193957" data-name="Path 193957" d="M1378.706,335.09c-7.884.043-14.271,32.168-14.286,71.844l-.086.086a20.341,20.341,0,0,0-28.643-.13c.043-39.663,19.278-71.787,43.015-71.8" transform="translate(-1176.651 -295.191)" fill="#a9a9ff"/>
        <path id="Path_193958" data-name="Path 193958" d="M1591.256,335.09h.014c7.9,0,14.285,32.153,14.3,71.844a20.341,20.341,0,0,0-28.6,0c.014-39.677,6.4-71.8,14.286-71.844" transform="translate(-1389.201 -295.191)" fill="#ebebff"/>
        <path id="Path_193959" data-name="Path 193959" d="M3247.191,3080.32c0,1.624-14.927,2.943-33.346,2.943s-33.354-1.319-33.354-2.943,14.927-2.933,33.354-2.933,33.346,1.319,33.346,2.933" transform="translate(-2801.79 -2710.964)" fill="#a9a9ff"/>
        <path id="Path_193960" data-name="Path 193960" d="M3390.706,2222.021l.08-.319c4.583-6.3,2.2-16.067-1.847-22.723-1.113-1.826-2.577-3.979-1.642-5.9.659-1.358,2.248-1.927,3.507-2.759,3.695-2.437,4.722-7.5,4.125-11.88s-2.46-8.5-3.255-12.857a27.012,27.012,0,0,1,1.357-14.467c.79-2.054,2.128-4.236,4.3-4.608s4.222,1.313,5.272,3.254c2.014,3.72,1.49,8.237,1,12.436s-.819,8.786,1.488,12.33c1.331,2.042,3.483,3.645,4.042,6.02.57,2.425-.728,4.885-2.2,6.9s-3.219,3.966-3.748,6.4c-.62,2.848.545,5.738,1.042,8.607,1.4,8.11-6.016,16.186-13.519,19.568" transform="translate(-2983.709 -1890.876)" fill="#a9a9ff"/>
        <path id="Path_193961" data-name="Path 193961" d="M3180.235,2185.621c-.585,1.552-1.556,3.068-1.3,4.852.375,2.532,2.841,3.775,4.822,4.807,6.865,3.78,14.409,9.425,16.871,16.774h.884c1.564-8.018,1.409-17.375-3.789-22.84-2-2.083-4.52-3.984-5.445-6.887-.787-2.48-.22-5.143.188-7.656s.579-5.311-.813-7.409c-1.362-2.061-3.854-2.855-5.736-4.467-3.269-2.8-4.271-7.927-4.61-12.741-.377-4.827-.377-10.054-2.537-14.088-1.134-2.1-3.175-3.829-5.325-2.955s-3.4,3.945-3.969,6.733a31.958,31.958,0,0,0,1.388,18.133c1.949,4.874,5.046,8.76,7.32,13.2,2.259,4.471,3.745,10,2.045,14.546" transform="translate(-2791.47 -1878.83)" fill="#a9a9ff"/>
        <path id="Path_193962" data-name="Path 193962" d="M3203.931,2220.719c.834,1.182,1.7,2.4,2.508,3.623,2.567,3.858,5.523,9.02,5.594,14.737.009.7-.027,1.428-.061,2.129a14.825,14.825,0,0,0,.337,5.085c.769,2.521,2.731,4.362,4.628,6.143.607.57,1.235,1.159,1.807,1.757a22.018,22.018,0,0,1,5.784,12.33h.663a22.363,22.363,0,0,0-5.992-12.767c-.584-.61-1.218-1.2-1.831-1.781-1.837-1.724-3.737-3.507-4.457-5.866a14.145,14.145,0,0,1-.311-4.87c.035-.711.071-1.446.062-2.168-.072-5.882-3.084-11.148-5.7-15.079-.816-1.227-1.681-2.452-2.517-3.637a59.868,59.868,0,0,1-6.1-9.954c-2.486-5.6-2.629-11.181-.392-15.325a.316.316,0,1,0-.555-.3c-2.33,4.317-2.2,10.106.371,15.881a60.35,60.35,0,0,0,6.157,10.062" transform="translate(-2815.231 -1933.298)" fill="#fff"/>
        <path id="Path_193963" data-name="Path 193963" d="M3415.927,2274.073l-5.15,9.284h.722l4.98-8.978c1.283-2.314,2.738-4.937,3.062-7.791a22.114,22.114,0,0,0-.674-6.852c-.578-2.827-1.125-5.5-.326-8.1a16.633,16.633,0,0,1,1.345-2.938,20.146,20.146,0,0,0,1.233-2.575c.981-2.671.8-5.6.524-8.364a141.275,141.275,0,0,0-4.439-23.808.316.316,0,0,0-.609.169,140.59,140.59,0,0,1,4.419,23.7c.266,2.695.447,5.538-.489,8.084a19.725,19.725,0,0,1-1.2,2.494,17.1,17.1,0,0,0-1.394,3.053c-.845,2.758-.257,5.632.311,8.411a21.637,21.637,0,0,1,.665,6.654c-.309,2.729-1.731,5.293-2.986,7.556" transform="translate(-3004.657 -1950.133)" fill="#fff"/>
        <path id="Path_193964" data-name="Path 193964" d="M3471.64,2221.958c2.732-7.542,10.963-12.865,18.326-16.251,2.05-.887,4.6-1.948,5.156-4.447.389-1.76-.47-3.342-.942-4.932-1.367-4.656.514-10.065,3.09-14.36,2.588-4.263,5.958-7.915,8.254-12.635a31.956,31.956,0,0,0,2.694-17.986c-.369-2.822-1.392-5.973-3.472-7s-4.242.553-5.525,2.563c-2.445,3.868-2.823,9.081-3.547,13.869-.686,4.777-2.055,9.818-5.518,12.375-1.993,1.471-4.536,2.083-6.043,4.041-1.54,1.992-1.56,4.781-1.346,7.331s.6,5.232-.365,7.649c-1.133,2.828-3.779,4.542-5.928,6.476-5.763,5.244-6.459,15.021-5.324,23.31Z" transform="translate(-3057.438 -1888.734)" fill="#a9a9ff"/>
        <path id="Path_193965" data-name="Path 193965" d="M3474.523,2286.388a29.559,29.559,0,0,1,7.4-15.212c.673-.726,1.407-1.448,2.117-2.146,2.431-2.39,4.946-4.862,5.778-8.191a18.346,18.346,0,0,0,.35-4.65,19.222,19.222,0,0,1,.266-4.217c.713-3.309,3.132-5.93,5.471-8.464.692-.75,1.408-1.526,2.069-2.307a32.728,32.728,0,0,0,7.563-23.751.316.316,0,1,0-.629.054,32.092,32.092,0,0,1-7.416,23.29c-.652.771-1.363,1.542-2.05,2.287-2.4,2.6-4.875,5.282-5.624,8.759a19.7,19.7,0,0,0-.28,4.357,17.863,17.863,0,0,1-.332,4.491c-.789,3.156-3.238,5.565-5.607,7.894-.715.7-1.454,1.43-2.137,2.167a30.2,30.2,0,0,0-7.574,15.641Z" transform="translate(-3060.249 -1953.164)" fill="#fff"/>
        <path id="Path_193966" data-name="Path 193966" d="M3312.789,2755.243v7.845a1.226,1.226,0,0,1-1.226,1.226h-44.739a1.226,1.226,0,0,1-1.226-1.226v-7.845a1.226,1.226,0,0,1,1.226-1.226h44.739a1.226,1.226,0,0,1,1.226,1.226" transform="translate(-2876.764 -2426.097)" fill="#3a3ae0"/>
        <path id="Path_193967" data-name="Path 193967" d="M3331.292,2840.5l-6.394,29.772a3.112,3.112,0,0,1-3.042,2.459H3299.32a3.112,3.112,0,0,1-3.043-2.459l-6.394-29.772Z" transform="translate(-2898.158 -2502.285)" fill="#7878f9"/>
        <path id="Path_193968" data-name="Path 193968" d="M2970.339,854.276V968.155a6.63,6.63,0,0,1-6.631,6.631H2872.7a6.63,6.63,0,0,1-6.63-6.631V854.276a6.63,6.63,0,0,1,6.63-6.63h91.013a6.631,6.631,0,0,1,6.631,6.63" transform="translate(-2524.803 -746.716)" fill="#d7d7ff"/>
        <path id="Path_193969" data-name="Path 193969" d="M2914.163,1010.648a1.027,1.027,0,0,1-1.026-1.026V895.743a1.027,1.027,0,0,1,1.026-1.025h91.013a1.026,1.026,0,0,1,1.026,1.025v113.879a1.027,1.027,0,0,1-1.026,1.026Z" transform="translate(-2566.271 -788.185)" fill="#fff"/>
        <path id="Path_193970" data-name="Path 193970" d="M3171.206,799.174v10.088a1.8,1.8,0,0,1-1.8,1.8H3131.52a1.8,1.8,0,0,1-1.8-1.8V799.174a1.8,1.8,0,0,1,1.8-1.8H3169.4a1.8,1.8,0,0,1,1.8,1.8" transform="translate(-2757.063 -702.43)" fill="#a9a9ff"/>
        <path id="Path_193971" data-name="Path 193971" d="M2998.664,1500.251v10.224a1.318,1.318,0,0,1-1.318,1.318h-10.232a1.318,1.318,0,0,1-1.318-1.318v-10.224a1.319,1.319,0,0,1,1.318-1.318h10.232a1.319,1.319,0,0,1,1.318,1.318" transform="translate(-2630.278 -1320.456)" fill="#a9a9ff"/>
        <path id="Path_193972" data-name="Path 193972" d="M3222.38,1525.841h0a.843.843,0,0,1-.843.843H3169.2a.843.843,0,1,1,0-1.687h52.338a.843.843,0,0,1,.843.843" transform="translate(-2791.101 -1343.417)" fill="#a9a9ff"/>
        <path id="Path_193973" data-name="Path 193973" d="M3198.976,1566.714H3169.2a.843.843,0,0,0,0,1.687h29.777a.843.843,0,0,0,0-1.687" transform="translate(-2791.1 -1380.166)" fill="#a9a9ff"/>
        <path id="Path_193974" data-name="Path 193974" d="M3501.068,1567.557h0a.844.844,0,0,0,.844.843h5.655a.843.843,0,0,0,0-1.687h-5.655a.843.843,0,0,0-.844.843" transform="translate(-3084.197 -1380.166)" fill="#a9a9ff"/>
        <path id="Path_193975" data-name="Path 193975" d="M2998.664,1672.951v10.224a1.318,1.318,0,0,1-1.318,1.318h-10.232a1.318,1.318,0,0,1-1.318-1.318v-10.224a1.318,1.318,0,0,1,1.318-1.318h10.232a1.318,1.318,0,0,1,1.318,1.318" transform="translate(-2630.278 -1472.592)" fill="#a9a9ff"/>
        <path id="Path_193976" data-name="Path 193976" d="M3222.38,1698.541h0a.843.843,0,0,1-.843.843H3169.2a.843.843,0,1,1,0-1.687h52.338a.843.843,0,0,1,.843.843" transform="translate(-2791.101 -1495.554)" fill="#a9a9ff"/>
        <path id="Path_193977" data-name="Path 193977" d="M3198.976,1739.413H3169.2a.843.843,0,0,0,0,1.687h29.777a.843.843,0,0,0,0-1.687" transform="translate(-2791.1 -1532.302)" fill="#a9a9ff"/>
        <path id="Path_193978" data-name="Path 193978" d="M3501.068,1740.256h0a.843.843,0,0,0,.844.843h5.655a.843.843,0,0,0,0-1.687h-5.655a.843.843,0,0,0-.844.843" transform="translate(-3084.197 -1532.302)" fill="#a9a9ff"/>
        <path id="Path_193979" data-name="Path 193979" d="M3021.114,1536.444a.839.839,0,0,1-.59-.241l-1.295-1.274a.841.841,0,1,1,1.179-1.2l.717.7,2-1.891a.841.841,0,0,1,1.156,1.221l-2.585,2.449a.837.837,0,0,1-.578.23" transform="translate(-2659.509 -1349.862)" fill="#fff"/>
        <path id="Path_193980" data-name="Path 193980" d="M3021.114,1712.426a.839.839,0,0,1-.59-.241l-1.295-1.273a.841.841,0,1,1,1.179-1.2l.717.7,2-1.891a.841.841,0,0,1,1.156,1.221l-2.585,2.449a.836.836,0,0,1-.578.23" transform="translate(-2659.509 -1504.889)" fill="#fff"/>
        <path id="Path_193981" data-name="Path 193981" d="M311.979,1279.17a6.6,6.6,0,1,0,6.587,6.617,6.58,6.58,0,0,0-6.587-6.617m0,11.144a4.547,4.547,0,1,1,4.526-4.537,4.535,4.535,0,0,1-4.526,4.537" transform="translate(-269.029 -1126.86)" fill="#55c955"/>
        <path id="Path_193982" data-name="Path 193982" d="M435.735,1416.843a.674.674,0,0,1-.663.651,3.854,3.854,0,0,0-3.893,3.776.636.636,0,0,1-.619.651.727.727,0,0,1-.752-.651,3.815,3.815,0,0,0-3.849-3.776.674.674,0,0,1-.664-.651.646.646,0,0,1,.664-.651,3.852,3.852,0,0,0,3.849-3.819.674.674,0,0,1,.663-.651.685.685,0,0,1,.708.651,3.891,3.891,0,0,0,3.893,3.819.646.646,0,0,1,.663.651" transform="translate(-374.654 -1243.629)" fill="#a9a9ff"/>
        <path id="Path_193983" data-name="Path 193983" d="M514.362,1278.293a4.619,4.619,0,1,1-4.619-4.645,4.633,4.633,0,0,1,4.619,4.645" transform="translate(-444.979 -1121.995)" fill="#d7d7ff"/>
        <g id="Group_244867" data-name="Group 244867" transform="translate(144.251 229.973)" opacity="0.6">
          <g id="Group_244866" data-name="Group 244866">
            <g id="Group_244865-2" data-name="Group 244865" clip-path="url(#clip-path-3)">
              <path id="Path_193984" data-name="Path 193984" d="M1219.88,1935.647a4.2,4.2,0,1,1-4.2-4.224,4.213,4.213,0,0,1,4.2,4.224" transform="translate(-1211.478 -1931.423)" fill="#f95d5d"/>
            </g>
          </g>
        </g>
        <path id="Path_193985" data-name="Path 193985" d="M1129.148,2084.534a3.846,3.846,0,1,1,3.816-3.845,3.85,3.85,0,0,1-3.816,3.845m.005-6.294a2.449,2.449,0,1,0,2.408,2.449,2.451,2.451,0,0,0-2.408-2.449" transform="translate(-991.313 -1829.554)" fill="#fa9926"/>
        <path id="Path_193986" data-name="Path 193986" d="M225.565,2372.169l-1.011.237c-.379.088-.741.169-1.108.252H211.392c-1.143-.2-2.27-.417-3.381-.709a20.616,20.616,0,0,1-5.072-2.013c-1.16-.668-3.815-2.479-3.349-5a4.062,4.062,0,0,1,3.9-2.989,9.742,9.742,0,0,1,4.2.932.9.9,0,0,0-.1-.237,2.165,2.165,0,0,0-1.45-.967,7.346,7.346,0,0,0-1.187-.1,5.616,5.616,0,0,1-2.224-.4,3.128,3.128,0,0,1-1.653-3.454c.193-.818,1.275-1.231,2.136-1.565l.308-.114c-1.741-.906-4.852-2.945-4.334-5.74a10.222,10.222,0,0,1,.369-1.31,4.932,4.932,0,0,0,.378-1.978c-.167-1.749-2.171-2.725-4.017-3.613-5.766-2.8-10.909-7.92-14.856-14.829-3.507-6.153-5.758-12.957-7.929-19.55-1.055-3.2-.8-5.38.774-6.479a3.958,3.958,0,0,1,4.474.334,11.06,11.06,0,0,1,2.655,3.235l.105.185a82.8,82.8,0,0,0,13.871,16.781c.923.853,1.864,1.688,2.8,2.523a54.441,54.441,0,0,1,8.166,8.36c2.857,3.912,4.633,8.536,6.347,13.01,1.9,4.949,3.859,10.065,7.287,14.117.536.633,1.116,1.248,1.679,1.846a32.873,32.873,0,0,1,2.452,2.813,9.355,9.355,0,0,1,2.154,6.013.439.439,0,0,1-.343.4" transform="translate(-151.963 -2027.895)" fill="#a9a9ff"/>
        <path id="Path_193987" data-name="Path 193987" d="M281.658,2480.523a42.814,42.814,0,0,0-5.246-6.485c-2.417-2.611-4.914-5.318-6.443-8.562a36.073,36.073,0,0,1-1.389-3.648,34.686,34.686,0,0,0-1.239-3.3,36.25,36.25,0,0,0-5.564-8.052L240.7,2425.155a.443.443,0,0,1,.062-.615.434.434,0,0,1,.615.053l21.079,25.325a37.355,37.355,0,0,1,5.687,8.254c.5,1.1.888,2.259,1.275,3.375a32.087,32.087,0,0,0,1.354,3.551c1.468,3.129,3.921,5.784,6.285,8.351a40.7,40.7,0,0,1,5.622,7.074Z" transform="translate(-211.953 -2135.76)" fill="#fff"/>
        <path id="Path_193988" data-name="Path 193988" d="M611.884,2530.451a21.465,21.465,0,0,0-1.389,2.435,10.3,10.3,0,0,0-.888,3.534,7.5,7.5,0,0,0,.132,1.547,6.514,6.514,0,0,1,.123,1.925,2.578,2.578,0,0,1-1.052,1.58h-9.169a3.729,3.729,0,0,1-.293-.463,6.447,6.447,0,0,1-.369-3.806,29.743,29.743,0,0,1,1.8-6.857c.228-.562.466-1.116.7-1.67a26.949,26.949,0,0,0,1.354-3.578,26.314,26.314,0,0,0,.51-7.577,37.116,37.116,0,0,1,.132-5.758,36.311,36.311,0,0,1,1.732-6.742c.229-.7.457-1.406.668-2.118.756-2.47,1.538-5.705.932-8.755a.44.44,0,0,1,.853-.211l4.949,17.176a47.318,47.318,0,0,1,1.872,8.421,15.927,15.927,0,0,1-1.266,8.606,22.981,22.981,0,0,1-1.336,2.312" transform="translate(-527.557 -2196.708)" fill="#a9a9ff"/>
        <path id="Path_193989" data-name="Path 193989" d="M641.746,2649.964c-.387.888-.782,1.793-1.1,2.707a30.711,30.711,0,0,0-1.293,6.731h-.885a32.18,32.18,0,0,1,1.351-7.021c.325-.941.73-1.872,1.116-2.769a17.932,17.932,0,0,0,1.67-5.125,18.125,18.125,0,0,0-.229-4.571l-1.6-11.92a.452.452,0,0,1,.378-.5.439.439,0,0,1,.492.378l1.6,11.929a14.47,14.47,0,0,1-1.5,10.162" transform="translate(-562.448 -2314.638)" fill="#fff"/>
        <path id="Path_193990" data-name="Path 193990" d="M392.05,2346.1l-.035.114c-.645,1.792-1.162,3.1-1.587,4.076h-8.621a11.412,11.412,0,0,1-2.933-3.663,22.709,22.709,0,0,1-1.776-7.946,28.729,28.729,0,0,0-1.055-6.136,28.261,28.261,0,0,0-2.637-5.318,33.928,33.928,0,0,1-2.417-4.667c-1.327-3.384-1.53-7.059-1.714-10.61a48.161,48.161,0,0,0-.809-7.534,46.6,46.6,0,0,0-3.367-9.08c-.571-1.266-1.16-2.567-1.688-3.876-1.02-2.514-4.132-13.7-2.409-14.75.659-.4,1.336.4,1.565.668.633.739,5.881,7.2,11.445,14.038,2.725,3.358,5.459,6.716,7.577,9.327,2.11,2.584,4.72,5.793,5.16,9.625a18.953,18.953,0,0,1-.018,3.534,11.69,11.69,0,0,0,2.4,9.037c.492.809,1,1.653,1.433,2.514,2.083,4.193,2.127,8.7,2.162,13.062,0,.528.009,1.064.018,1.591a8.459,8.459,0,0,0,.123,1.125,7.7,7.7,0,0,1,.141,1.363,9.132,9.132,0,0,1-.747,2.954c-.079.193-.141.378-.211.554" transform="translate(-317.568 -2005.53)" fill="#a9a9ff"/>
        <path id="Path_193991" data-name="Path 193991" d="M451.915,2455.511c.01.385.029.759.055,1.123h-.863c-.025-.363-.061-.714-.071-1.1-.026-1.275.026-2.558.079-3.8a47.328,47.328,0,0,0,.026-4.87c-.334-4.914-2.312-9.6-4.228-14.126a64.828,64.828,0,0,1-3.692-10.311c-.343-1.494-.589-3.024-.818-4.51-.229-1.424-.457-2.9-.782-4.325a15.536,15.536,0,0,0-3.8-7.727c-.448-.457-.958-.879-1.45-1.292a14.7,14.7,0,0,1-2.154-2.039c-1.081-1.345-1.74-3.419-.765-5.01a.433.433,0,0,1,.6-.149.441.441,0,0,1,.149.606c-.756,1.231-.193,2.892.7,4a14.088,14.088,0,0,0,2.031,1.917c.5.422,1.028.861,1.512,1.345a16.279,16.279,0,0,1,4.026,8.157c.334,1.45.571,2.945.8,4.378.228,1.468.466,2.989.809,4.448a63.409,63.409,0,0,0,3.639,10.17c1.943,4.6,3.956,9.344,4.29,14.416a46.614,46.614,0,0,1-.018,4.958c-.053,1.231-.105,2.5-.079,3.736" transform="translate(-381.425 -2111.87)" fill="#fff"/>
        <path id="Path_193992" data-name="Path 193992" d="M3547.023,365.008a6.719,6.719,0,1,0,6.7,6.739,6.7,6.7,0,0,0-6.7-6.739m0,11.824a5.105,5.105,0,1,1,5.084-5.095,5.083,5.083,0,0,1-5.084,5.095" transform="translate(-3118.779 -321.547)" fill="#ffae55"/>
        <path id="Path_193993" data-name="Path 193993" d="M3694.395,532.289a.685.685,0,0,1-.674.662,3.916,3.916,0,0,0-3.956,3.836.646.646,0,0,1-.629.661.739.739,0,0,1-.764-.661,3.877,3.877,0,0,0-3.911-3.836.685.685,0,0,1-.675-.662.656.656,0,0,1,.675-.662,3.914,3.914,0,0,0,3.911-3.88.685.685,0,0,1,.674-.662.7.7,0,0,1,.719.662,3.953,3.953,0,0,0,3.956,3.88.656.656,0,0,1,.674.662" transform="translate(-3245.158 -464.326)" fill="#a9a9ff"/>
        <path id="Path_193994" data-name="Path 193994" d="M3765.273,388.692a3.126,3.126,0,1,1-3.126-3.144,3.135,3.135,0,0,1,3.126,3.144" transform="translate(-3311.434 -339.641)" fill="#55c955"/>
        <path id="Path_193995" data-name="Path 193995" d="M106.69,527.173H196.52c1.169-6.939-.468-13.652-4.668-16.955-3.193-2.51-7.2-2.526-10.958-.517a15.939,15.939,0,0,0-4.434-8.352c-3.411-3.2-7.925-3.811-12.44-2.217-.448-8.8-4.365-14.785-10.734-14.785-7.915,0-17.034,9.253-22.092,21.671-3.976-4.744-9.034-7.733-14.017-7.733-9.215,0-14.7,10.233-12.248,22.859a34.294,34.294,0,0,0,1.761,6.029" transform="translate(-91.92 -426.676)" fill="#ebebff"/>
        <path id="Path_193996" data-name="Path 193996" d="M2528.148,32.733h70.18c.725-5.188-.567-10.13-3.716-12.606-2.483-1.953-5.6-1.965-8.523-.4a12.4,12.4,0,0,0-3.449-6.5,9.145,9.145,0,0,0-9.676-1.725c-.348-6.845-3.4-11.5-8.35-11.5-6.156,0-13.25,7.2-17.184,16.857-3.093-3.69-7.027-6.016-10.9-6.016-7.168,0-11.434,7.96-9.527,17.781a26.614,26.614,0,0,0,1.149,4.108" transform="translate(-2225.709 -0.003)" fill="#d7d7ff"/>
        <path id="Path_193997" data-name="Path 193997" d="M3061.558,1424.066h0a.843.843,0,0,1-.843.843h-74.075a.843.843,0,0,1,0-1.687h74.075a.843.843,0,0,1,.843.843" transform="translate(-2630.278 -1253.76)" fill="#a9a9ff"/>
        <path id="Path_193998" data-name="Path 193998" d="M3061.558,1358.788h0a.843.843,0,0,1-.843.843h-74.075a.843.843,0,0,1,0-1.687h74.075a.843.843,0,0,1,.843.843" transform="translate(-2630.278 -1196.255)" fill="#a9a9ff"/>
        <path id="Path_193999" data-name="Path 193999" d="M3218.625,1017a.926.926,0,0,1,.794.914v13.407a9.312,9.312,0,0,1-3.926,7.6l-8.749,6.2a.924.924,0,0,1-1.069,0l-8.749-6.2a9.312,9.312,0,0,1-3.926-7.6v-13.407a.926.926,0,0,1,.794-.914,5.368,5.368,0,0,0,4.511-4.511.926.926,0,0,1,.914-.794h13.98a.926.926,0,0,1,.914.794,5.368,5.368,0,0,0,4.511,4.511" transform="translate(-2812.81 -891.229)" fill="#a9a9ff"/>
        <path id="Path_194000" data-name="Path 194000" d="M3261.824,1088.849a6.582,6.582,0,1,1-6.582-6.582,6.582,6.582,0,0,1,6.582,6.582" transform="translate(-2861.844 -953.402)" fill="#fff"/>
        <path id="Path_194001" data-name="Path 194001" d="M1307.23,3231.854c0,3.646-18.921,6.6-42.273,6.6s-42.286-2.951-42.286-6.6,18.934-6.6,42.286-6.6,42.273,2.951,42.273,6.6" transform="translate(-1077.088 -2841.227)" fill="#9595f9"/>
        <path id="Path_194002" data-name="Path 194002" d="M1397.831,2515.578c-.692.987-5.589-1.25-10.938-5s-9.124-7.585-8.432-8.573,5.589,1.251,10.938,5,9.124,7.585,8.432,8.571" transform="translate(-1214.256 -2203.889)" fill="#fa9926"/>
        <path id="Path_194003" data-name="Path 194003" d="M1415.788,2528.532c-.494.7-3.986-.892-7.8-3.563s-6.506-5.409-6.012-6.113,3.985.892,7.8,3.565,6.505,5.408,6.012,6.112" transform="translate(-1234.992 -2218.791)" fill="#ffae55"/>
        <path id="Path_194004" data-name="Path 194004" d="M1380.565,2517.3l-2.334,3.328c-.692.987-5.589-1.25-10.938-5s-9.124-7.586-8.432-8.573l2.334-3.328c-.692.987,3.083,4.825,8.432,8.573s10.246,5.985,10.938,5" transform="translate(-1196.99 -2205.612)" fill="#ffae55"/>
        <path id="Path_194005" data-name="Path 194005" d="M1365.391,2516.021l-2.334,3.328q-.166-.213-.295-.41l2.334-3.328q.129.2.295.41" transform="translate(-1200.498 -2216.078)" fill="#fa9926"/>
        <path id="Path_194006" data-name="Path 194006" d="M1380.228,2533.087l-2.334,3.328q-.179-.171-.346-.337l2.334-3.328q.167.166.346.338" transform="translate(-1213.524 -2231.176)" fill="#fa9926"/>
        <path id="Path_194007" data-name="Path 194007" d="M1396.582,2548l-2.334,3.328c-.125-.1-.245-.206-.365-.309l2.334-3.328c.119.1.24.205.365.309" transform="translate(-1227.914 -2244.34)" fill="#fa9926"/>
        <path id="Path_194008" data-name="Path 194008" d="M1413.684,2561.837l-2.334,3.328c-.128-.1-.255-.193-.379-.288l2.334-3.328c.125.1.251.192.379.288" transform="translate(-1242.967 -2256.546)" fill="#fa9926"/>
        <path id="Path_194009" data-name="Path 194009" d="M1431.37,2574.842l-2.334,3.328c-.066-.044-.13-.09-.2-.135s-.131-.092-.195-.138l2.334-3.328c.064.046.13.093.2.138s.13.091.2.135" transform="translate(-1258.537 -2268.015)" fill="#fa9926"/>
        <path id="Path_194010" data-name="Path 194010" d="M1449.571,2587.124l-2.334,3.328-.4-.258,2.334-3.328c.134.087.268.173.4.258" transform="translate(-1274.563 -2278.849)" fill="#fa9926"/>
        <path id="Path_194011" data-name="Path 194011" d="M1468.324,2598.605l-2.334,3.328c-.138-.077-.275-.156-.415-.237l2.334-3.328c.14.082.277.16.415.237" transform="translate(-1291.069 -2288.981)" fill="#fa9926"/>
        <path id="Path_194012" data-name="Path 194012" d="M1487.8,2609.06l-2.334,3.328q-.213-.1-.435-.21l2.334-3.328c.148.073.294.143.435.21" transform="translate(-1308.206 -2298.215)" fill="#fa9926"/>
        <path id="Path_194013" data-name="Path 194013" d="M1508.583,2617.644l-2.334,3.328q-.229-.054-.486-.137l2.334-3.328q.257.083.486.137" transform="translate(-1326.472 -2305.841)" fill="#fa9926"/>
        <path id="Path_194014" data-name="Path 194014" d="M1492.252,2515.252c.055,1.205-5.184,2.427-11.7,2.729s-11.848-.429-11.9-1.635,5.184-2.425,11.7-2.728,11.847.429,11.9,1.633" transform="translate(-1293.775 -2214.263)" fill="#fa9926"/>
        <path id="Path_194015" data-name="Path 194015" d="M1513.924,2520.185c.04.859-3.7,1.73-8.344,1.946s-8.448-.306-8.488-1.166,3.7-1.729,8.344-1.945,8.447.306,8.487,1.165" transform="translate(-1318.834 -2219.039)" fill="#ffae55"/>
        <path id="Path_194016" data-name="Path 194016" d="M1492.255,2527.839l.187,4.062c.055,1.205-5.184,2.427-11.7,2.729s-11.848-.429-11.9-1.634l-.187-4.062c.056,1.205,5.384,1.937,11.9,1.635s11.757-1.524,11.7-2.729" transform="translate(-1293.778 -2226.85)" fill="#ffae55"/>
        <path id="Path_194017" data-name="Path 194017" d="M1479,2544.569l.187,4.062q-.261-.067-.484-.144l-.187-4.062q.223.077.484.144" transform="translate(-1302.466 -2241.461)" fill="#fa9926"/>
        <path id="Path_194018" data-name="Path 194018" d="M1501.15,2549.014l.187,4.062c-.164-.018-.324-.037-.48-.056l-.187-4.062c.156.019.315.038.48.056" transform="translate(-1321.986 -2245.455)" fill="#fa9926"/>
        <path id="Path_194019" data-name="Path 194019" d="M1523.191,2550.827l.187,4.062c-.161-.006-.32-.013-.477-.021l-.187-4.062c.157.009.316.016.477.021" transform="translate(-1341.405 -2247.082)" fill="#fa9926"/>
        <path id="Path_194020" data-name="Path 194020" d="M1545.164,2551.3l.187,4.062-.476,0-.187-4.062.476,0" transform="translate(-1360.762 -2247.52)" fill="#fa9926"/>
        <path id="Path_194021" data-name="Path 194021" d="M1567.091,2550.653l.187,4.062-.237.012c-.08,0-.16.008-.239.01l-.187-4.062.239-.01.237-.012" transform="translate(-1380.078 -2246.948)" fill="#fa9926"/>
        <path id="Path_194022" data-name="Path 194022" d="M1588.984,2549.116l.187,4.062-.474.041-.187-4.062.474-.041" transform="translate(-1399.366 -2245.594)" fill="#fa9926"/>
        <path id="Path_194023" data-name="Path 194023" d="M1610.826,2546.558l.187,4.062c-.156.023-.313.045-.473.066l-.187-4.062c.16-.021.317-.042.473-.066" transform="translate(-1418.609 -2243.34)" fill="#fa9926"/>
        <path id="Path_194024" data-name="Path 194024" d="M1632.609,2542.679l.187,4.062c-.153.034-.311.067-.472.1l-.187-4.062c.162-.032.319-.066.473-.1" transform="translate(-1437.799 -2239.923)" fill="#fa9926"/>
        <path id="Path_194025" data-name="Path 194025" d="M1654.287,2536.115l.187,4.062q-.215.1-.468.188l-.187-4.062q.254-.091.469-.188" transform="translate(-1456.899 -2234.141)" fill="#fa9926"/>
        <path id="Path_194026" data-name="Path 194026" d="M1623.255,2492.962c-.613,1.039-5.667-.8-11.288-4.116s-9.684-6.84-9.071-7.879,5.666.8,11.289,4.117,9.683,6.839,9.071,7.877" transform="translate(-1411.985 -2185.304)" fill="#fa9926"/>
        <path id="Path_194027" data-name="Path 194027" d="M1642.075,2504.589c-.437.741-4.041-.573-8.049-2.935s-6.905-4.877-6.468-5.618,4.04.574,8.049,2.936,6.9,4.876,6.468,5.617" transform="translate(-1433.726 -2198.652)" fill="#ffae55"/>
        <path id="Path_194028" data-name="Path 194028" d="M1607.977,2495.1l-2.065,3.5c-.613,1.039-5.667-.8-11.288-4.116s-9.684-6.84-9.071-7.879l2.065-3.5c-.613,1.039,3.448,4.566,9.071,7.879s10.676,5.155,11.288,4.116" transform="translate(-1396.708 -2187.445)" fill="#ffae55"/>
        <path id="Path_194029" data-name="Path 194029" d="M1592.607,2495.077l-2.065,3.5q-.182-.2-.326-.385l2.065-3.5q.144.186.326.385" transform="translate(-1400.869 -2197.65)" fill="#fa9926"/>
        <path id="Path_194030" data-name="Path 194030" d="M1608.723,2510.915l-2.065,3.5c-.128-.1-.251-.208-.371-.309l2.065-3.5q.18.152.371.309" transform="translate(-1415.027 -2211.669)" fill="#fa9926"/>
        <path id="Path_194031" data-name="Path 194031" d="M1626.185,2524.488l-2.065,3.5c-.132-.093-.26-.186-.387-.279l2.065-3.5c.127.093.255.186.387.279" transform="translate(-1430.395 -2223.652)" fill="#fa9926"/>
        <path id="Path_194032" data-name="Path 194032" d="M1644.3,2536.927l-2.065,3.5c-.135-.086-.269-.172-.4-.257l2.065-3.5c.132.085.265.172.4.257" transform="translate(-1446.346 -2234.63)" fill="#fa9926"/>
        <path id="Path_194033" data-name="Path 194033" d="M1662.942,2548.492l-2.065,3.5c-.069-.039-.137-.079-.205-.12s-.138-.081-.205-.122l2.065-3.5c.067.041.136.082.2.122s.137.081.206.12" transform="translate(-1462.755 -2244.831)" fill="#fa9926"/>
        <path id="Path_194034" data-name="Path 194034" d="M1682.036,2559.294l-2.065,3.5c-.138-.074-.278-.149-.419-.225l2.065-3.5.419.225" transform="translate(-1479.568 -2254.362)" fill="#fa9926"/>
        <path id="Path_194035" data-name="Path 194035" d="M1701.617,2569.255l-2.065,3.5c-.143-.066-.286-.133-.432-.2l2.065-3.5c.146.071.289.138.432.2" transform="translate(-1496.806 -2263.155)" fill="#fa9926"/>
        <path id="Path_194036" data-name="Path 194036" d="M1721.836,2578.135l-2.065,3.5c-.146-.056-.3-.114-.45-.175l2.065-3.5q.23.092.45.175" transform="translate(-1514.602 -2271.004)" fill="#fa9926"/>
        <path id="Path_194037" data-name="Path 194037" d="M1743.215,2585.045l-2.065,3.5q-.233-.036-.5-.1l2.065-3.5q.262.063.5.1" transform="translate(-1533.396 -2277.158)" fill="#fa9926"/>
        <path id="Path_194038" data-name="Path 194038" d="M1285.3,2645.063c-2.7-.007-5.225-.075-7.58-.2-35.026-1.883-32.734-16.533-31.266-32.449,1.727-18.687,14.673-32.572,17.869-35.738a4.112,4.112,0,0,0,1.224-3.425,4.23,4.23,0,0,0-1.49-2.668c-2.714-2.4-6.89-5.359-5.149-7.758s7.932-3.306,12.247-1.5,6.888-.7,9.186-1.288,6.333,1.74,8.8,2.122,6.611-2.469,8.384-2.435,5.186,3.1,8.073,2.993,5.983-.765,7.1,1.01-4.873,6.47-6.193,7.932a3.817,3.817,0,0,0-.834,1.789,4.123,4.123,0,0,0,1.113,3.735c.667.683,1.572,1.649,2.623,2.872,5.031,5.86,13.376,17.614,14.737,32.357,1.569,16.985,4.073,32.531-38.845,32.65" transform="translate(-1097.439 -2254.94)" fill="#a9a9ff"/>
        <path id="Path_194039" data-name="Path 194039" d="M1521.669,2795.474c-2.7-.007-5.225-.075-7.58-.2a.008.008,0,0,1,.007,0c43.643-9.14,32.846-59.844,31.681-64.8,5.031,5.86,13.376,17.614,14.737,32.358,1.569,16.985,4.073,32.531-38.845,32.65" transform="translate(-1333.807 -2405.35)" fill="#a9a9ff"/>
        <path id="Path_194040" data-name="Path 194040" d="M1414.545,2666.185a35.9,35.9,0,0,1-9.646-1.514.653.653,0,0,1,.395-1.244c.064.02,6.427,2.011,11.765,1.3q.936-.125,1.842-.25c4.827-.661,9-1.232,12.061-.664,2.128.394,9.471,1.567,14.58.115a.652.652,0,1,1,.357,1.255c-5.233,1.489-12.356.435-15.175-.088-2.86-.529-6.932.028-11.646.674q-.908.124-1.846.251a20.335,20.335,0,0,1-2.687.169" transform="translate(-1237.217 -2346.267)" fill="#3a3ae0"/>
        <path id="Path_194041" data-name="Path 194041" d="M1434.06,2681.692a31.805,31.805,0,0,1-7.563-.717c-3.64-1.007-5.882-.656-11.3.192l-.468.073a12.982,12.982,0,0,1-10.057-2.442.653.653,0,0,1,.849-.991,11.9,11.9,0,0,0,9.006,2.143l.469-.073c5.451-.853,7.939-1.243,11.848-.161,3.841,1.063,14.026.883,18.792-.75a.653.653,0,1,1,.423,1.235c-2.946,1.01-7.721,1.49-12,1.49" transform="translate(-1237.218 -2358.825)" fill="#3a3ae0"/>
        <path id="Path_194042" data-name="Path 194042" d="M1445.457,2709.656a.649.649,0,0,1-.421-.154c-3.864-3.271-2.822-13.041-2.776-13.456a.653.653,0,0,1,1.3.145c-.01.095-1.012,9.492,2.322,12.315a.652.652,0,0,1-.422,1.15" transform="translate(-1270.388 -2374.518)" fill="#3a3ae0"/>
        <path id="Path_194043" data-name="Path 194043" d="M1367.614,2705.481a.653.653,0,0,1-.3-1.235c6.759-3.428,6.843-13.046,6.843-13.142a.653.653,0,0,1,1.305,0c0,.427-.077,10.513-7.557,14.307a.652.652,0,0,1-.295.071" transform="translate(-1204.197 -2370.101)" fill="#3a3ae0"/>
        <path id="Path_194044" data-name="Path 194044" d="M1478.092,2888.214a15.576,15.576,0,1,1-15.574-15.574,15.577,15.577,0,0,1,15.574,15.574" transform="translate(-1274.653 -2530.596)" fill="#d7d7ff"/>
        <path id="Path_194045" data-name="Path 194045" d="M551.53,3266.665c0,2.871-14.9,5.195-33.292,5.195s-33.3-2.324-33.3-5.195,14.911-5.195,33.3-5.195,33.292,2.324,33.292,5.195" transform="translate(-427.195 -2873.128)" fill="#a9a9ff"/>
        <path id="Path_194046" data-name="Path 194046" d="M607.324,3186.781c0,2.4-10.519,4.34-23.493,4.34s-23.5-1.943-23.5-4.34,10.518-4.337,23.5-4.337,23.493,1.943,23.493,4.337" transform="translate(-493.616 -2803.511)" fill="#fa9926"/>
        <path id="Path_194047" data-name="Path 194047" d="M650.461,3195.993c0,1.709-7.5,3.094-16.752,3.094s-16.753-1.385-16.753-3.094,7.5-3.093,16.753-3.093,16.752,1.385,16.752,3.093" transform="translate(-543.495 -2812.722)" fill="#ffae55"/>
        <path id="Path_194048" data-name="Path 194048" d="M607.324,3218.87v8.08c0,2.4-10.519,4.34-23.493,4.34s-23.5-1.943-23.5-4.34v-8.08c0,2.4,10.518,4.34,23.5,4.34s23.493-1.943,23.493-4.34" transform="translate(-493.616 -2835.6)" fill="#ffae55"/>
        <path id="Path_194049" data-name="Path 194049" d="M580.2,3234.787v8.08q-.512-.158-.948-.331v-8.08q.435.174.948.331" transform="translate(-510.277 -2849.331)" fill="#fa9926"/>
        <path id="Path_194050" data-name="Path 194050" d="M623.8,3245.649v8.08c-.324-.05-.64-.1-.948-.155v-8.08c.307.052.623.105.948.155" transform="translate(-548.687 -2859.054)" fill="#fa9926"/>
        <path id="Path_194051" data-name="Path 194051" d="M667.414,3251.276v8.08c-.32-.026-.634-.055-.945-.087v-8.08c.311.031.625.06.945.087" transform="translate(-587.113 -2864.071)" fill="#fa9926"/>
        <path id="Path_194052" data-name="Path 194052" d="M711.015,3254.295v8.08c-.318-.01-.634-.024-.945-.037v-8.08c.312.013.627.026.945.037" transform="translate(-625.522 -2866.775)" fill="#fa9926"/>
        <path id="Path_194053" data-name="Path 194053" d="M754.619,3255.3v8.08c-.157,0-.314,0-.473,0s-.318,0-.475,0v-8.08c.157,0,.316,0,.475,0s.316,0,.473,0" transform="translate(-663.932 -2867.689)" fill="#fa9926"/>
        <path id="Path_194054" data-name="Path 194054" d="M798.236,3254.258v8.08c-.312.013-.627.026-.945.037v-8.08c.318-.01.634-.024.945-.037" transform="translate(-702.358 -2866.775)" fill="#fa9926"/>
        <path id="Path_194055" data-name="Path 194055" d="M841.837,3251.19v8.08c-.312.031-.625.061-.946.087v-8.08c.32-.026.634-.055.946-.087" transform="translate(-740.766 -2864.072)" fill="#fa9926"/>
        <path id="Path_194056" data-name="Path 194056" d="M885.44,3245.494v8.08c-.307.053-.623.105-.948.155v-8.08c.324-.05.64-.1.948-.155" transform="translate(-779.176 -2859.054)" fill="#fa9926"/>
        <path id="Path_194057" data-name="Path 194057" d="M929.042,3234.456v8.08q-.435.173-.948.331v-8.08q.512-.158.948-.331" transform="translate(-817.586 -2849.331)" fill="#fa9926"/>
        <path id="Path_194058" data-name="Path 194058" d="M531.348,3087.386c0,2.394-10.5,4.334-23.459,4.334s-23.461-1.94-23.461-4.334,10.5-4.331,23.461-4.331,23.459,1.94,23.459,4.331" transform="translate(-426.746 -2715.957)" fill="#fa9926"/>
        <path id="Path_194059" data-name="Path 194059" d="M574.422,3096.584c0,1.707-7.489,3.09-16.727,3.09s-16.729-1.383-16.729-3.09,7.489-3.088,16.729-3.088,16.727,1.383,16.727,3.088" transform="translate(-476.553 -2725.155)" fill="#ffae55"/>
        <path id="Path_194060" data-name="Path 194060" d="M531.348,3119.428v8.069c0,2.394-10.5,4.333-23.459,4.333s-23.461-1.94-23.461-4.333v-8.069c0,2.394,10.5,4.333,23.461,4.333s23.459-1.94,23.459-4.333" transform="translate(-426.746 -2747.999)" fill="#ffae55"/>
        <path id="Path_194061" data-name="Path 194061" d="M504.259,3135.322v8.069q-.512-.157-.946-.331v-8.069q.435.173.946.331" transform="translate(-443.384 -2761.709)" fill="#fa9926"/>
        <path id="Path_194062" data-name="Path 194062" d="M547.8,3146.168v8.069c-.324-.05-.639-.1-.946-.155v-8.069c.307.053.622.105.946.155" transform="translate(-481.738 -2771.418)" fill="#fa9926"/>
        <path id="Path_194063" data-name="Path 194063" d="M591.351,3151.787v8.069c-.32-.026-.633-.055-.944-.087V3151.7c.311.031.624.061.944.087" transform="translate(-520.107 -2776.428)" fill="#fa9926"/>
        <path id="Path_194064" data-name="Path 194064" d="M634.889,3154.8v8.069c-.318-.01-.633-.023-.944-.037v-8.069c.311.013.627.026.944.037" transform="translate(-558.461 -2779.128)" fill="#fa9926"/>
        <path id="Path_194065" data-name="Path 194065" d="M678.429,3155.8v8.069c-.157,0-.313,0-.472,0s-.318,0-.474,0V3155.8c.157,0,.315,0,.474,0s.315,0,.472,0" transform="translate(-596.815 -2780.041)" fill="#fa9926"/>
        <path id="Path_194066" data-name="Path 194066" d="M721.983,3154.765v8.069c-.311.013-.627.026-.944.037V3154.8c.318-.01.633-.024.944-.037" transform="translate(-635.185 -2779.128)" fill="#fa9926"/>
        <path id="Path_194067" data-name="Path 194067" d="M765.521,3151.7v8.069c-.311.031-.624.06-.944.086v-8.069c.32-.026.633-.055.944-.087" transform="translate(-673.539 -2776.429)" fill="#fa9926"/>
        <path id="Path_194068" data-name="Path 194068" d="M809.061,3146.013v8.069c-.307.053-.622.105-.946.155v-8.068c.324-.05.639-.1.946-.155" transform="translate(-711.893 -2771.418)" fill="#fa9926"/>
        <path id="Path_194069" data-name="Path 194069" d="M852.6,3134.991v8.069q-.434.173-.946.331v-8.068q.512-.157.946-.331" transform="translate(-750.247 -2761.709)" fill="#fa9926"/>
        <path id="Path_194070" data-name="Path 194070" d="M603.568,2997.418c0,2.394-10.5,4.334-23.459,4.334s-23.461-1.94-23.461-4.334,10.5-4.331,23.461-4.331,23.459,1.94,23.459,4.331" transform="translate(-490.367 -2636.701)" fill="#fa9926"/>
        <path id="Path_194071" data-name="Path 194071" d="M646.642,3006.616c0,1.707-7.489,3.09-16.727,3.09s-16.729-1.383-16.729-3.09,7.489-3.088,16.729-3.088,16.727,1.383,16.727,3.088" transform="translate(-540.174 -2645.899)" fill="#ffae55"/>
        <path id="Path_194072" data-name="Path 194072" d="M603.568,3029.46v8.069c0,2.394-10.5,4.333-23.459,4.333s-23.461-1.94-23.461-4.333v-8.069c0,2.394,10.5,4.333,23.461,4.333s23.459-1.94,23.459-4.333" transform="translate(-490.367 -2668.743)" fill="#ffae55"/>
        <path id="Path_194073" data-name="Path 194073" d="M576.479,3045.353v8.069q-.512-.157-.946-.331v-8.069q.435.173.946.331" transform="translate(-507.004 -2682.452)" fill="#fa9926"/>
        <path id="Path_194074" data-name="Path 194074" d="M620.017,3056.2v8.069c-.324-.05-.639-.1-.946-.155v-8.069c.307.053.622.105.946.155" transform="translate(-545.358 -2692.162)" fill="#fa9926"/>
        <path id="Path_194075" data-name="Path 194075" d="M663.571,3061.819v8.069c-.32-.026-.633-.055-.944-.087v-8.069c.311.031.624.06.944.087" transform="translate(-583.728 -2697.173)" fill="#fa9926"/>
        <path id="Path_194076" data-name="Path 194076" d="M707.109,3064.834v8.069c-.318-.01-.633-.024-.944-.037V3064.8c.311.013.627.026.944.037" transform="translate(-622.082 -2699.873)" fill="#fa9926"/>
        <path id="Path_194077" data-name="Path 194077" d="M750.649,3065.833v8.069c-.157,0-.313,0-.472,0s-.318,0-.474,0v-8.069c.157,0,.315,0,.474,0s.315,0,.472,0" transform="translate(-660.436 -2700.785)" fill="#fa9926"/>
        <path id="Path_194078" data-name="Path 194078" d="M794.2,3064.8v8.069c-.311.013-.627.026-.944.036v-8.068c.318-.01.633-.024.944-.037" transform="translate(-698.806 -2699.873)" fill="#fa9926"/>
        <path id="Path_194079" data-name="Path 194079" d="M837.741,3061.732v8.069c-.311.031-.625.06-.944.086v-8.068c.32-.026.633-.055.944-.087" transform="translate(-737.16 -2697.173)" fill="#fa9926"/>
        <path id="Path_194080" data-name="Path 194080" d="M881.281,3056.045v8.069c-.307.052-.622.1-.946.155V3056.2c.324-.05.639-.1.946-.155" transform="translate(-775.514 -2692.163)" fill="#fa9926"/>
        <path id="Path_194081" data-name="Path 194081" d="M924.819,3045.023v8.069q-.434.173-.946.331v-8.069q.512-.157.946-.331" transform="translate(-813.868 -2682.453)" fill="#fa9926"/>
        <path id="Path_194082" data-name="Path 194082" d="M10.323,6.993H8a4.439,4.439,0,0,1,.7,1.872h2.148L10.323,10.8H8.717a3.933,3.933,0,0,1-1.4,2.685A6.047,6.047,0,0,1,4.006,14.6l4.956,5.8v.138H5.91L.5,14.225.486,12.6H3.177A3.2,3.2,0,0,0,5.064,12.1a2.363,2.363,0,0,0,.931-1.3H.273L.816,8.865H5.952Q5.431,7.216,3.134,7.216H.273L.848,5.047H10.866Z" transform="translate(182.971 346.352)" fill="#172b4d"/>
        <path id="Path_194083" data-name="Path 194083" d="M5.3,6.02H4.141a2.22,2.22,0,0,1,.351.936H5.567L5.3,7.925H4.5a1.967,1.967,0,0,1-.7,1.343,3.025,3.025,0,0,1-1.654.556l2.479,2.9v.069H3.093L.385,9.638.38,8.824H1.726a1.6,1.6,0,0,0,.944-.247,1.182,1.182,0,0,0,.465-.652H.273l.271-.968H3.114q-.261-.825-1.41-.825H.273L.561,5.047H5.572Z" transform="translate(390.477 126.527)" fill="#172b4d"/>
      </g>
    </g>
  </g>
</svg>
